<svg width="108" height="119" viewBox="0 0 108 119" fill="none" xmlns="http://www.w3.org/2000/svg">
<path d="M53.5908 4.72622C20.5487 4.87211 11.5125 9.81007 11.4562 44.5876C11.4562 51.7384 2.46387 56.6285 2.46387 56.6285C2.46387 56.6285 11.4562 62.1248 11.4562 68.6695V101.595C11.4562 115.436 38.5895 113.429 53.5908 113.429C68.5922 113.429 95.7256 115.436 95.7256 101.595V68.6695C95.7256 62.1248 104.718 56.6285 104.718 56.6285C104.718 56.6285 95.7256 51.7384 95.7256 44.5876C95.4051 13.6116 86.633 4.58037 53.5908 4.72622Z" stroke="#FFB703" stroke-width="9.44882" stroke-linejoin="bevel"/>
<path d="M39.7942 100.259V89.254H56.7071C61.804 89.254 65.7618 88.0957 68.5806 85.7789C71.3994 83.4234 72.8088 80.1412 72.8088 75.9323C72.8088 71.6076 71.3415 68.2676 68.4069 65.9121C65.4723 63.5181 61.302 62.3211 55.8961 62.3211H40.026L38.6359 57.0503H58.7921C67.1326 57.0503 73.5811 58.8458 78.1375 62.4369C82.6939 66.028 84.9721 71.1057 84.9721 77.67C84.9721 84.8521 82.8098 90.4124 78.485 94.351C74.1603 98.2896 68.0208 100.259 60.0664 100.259H39.7942ZM28.5577 100.259V18.0121H40.6051V100.259H28.5577ZM35.8557 59.8305V54.1543H59.4872V59.8305H35.8557ZM39.7942 56.587V51.3162H53.2318C57.5952 51.3162 60.9738 50.3508 63.3678 48.4202C65.8005 46.4509 67.0168 43.6514 67.0168 40.0218C67.0168 36.4693 65.7426 33.7471 63.1941 31.855C60.6843 29.9629 57.0931 29.0169 52.4209 29.0169H40.026L38.6359 18.0121H53.0001C61.3406 18.0121 67.7891 19.8269 72.3455 23.4566C76.9019 27.0477 79.1801 32.1832 79.1801 38.8634C79.1801 44.5396 77.0177 48.9221 72.693 52.0112C68.3683 55.0617 62.2288 56.587 54.2744 56.587H39.7942Z" fill="#FFB703"/>
</svg>
